<svg width="21" height="21" viewBox="0 0 21 21" fill="none" xmlns="http://www.w3.org/2000/svg">
<path fill-rule="evenodd" clip-rule="evenodd" d="M7.77778 15.5556C3.48223 15.5556 0 12.0733 0 7.77778C0 3.48223 3.48223 0 7.77778 0C12.0733 0 15.5556 3.48223 15.5556 7.77778C15.5556 9.62536 14.9113 11.3225 13.8353 12.6568L19.8017 18.6232C20.1271 18.9486 20.1271 19.4763 19.8017 19.8017C19.4763 20.1271 18.9486 20.1271 18.6232 19.8017L12.6568 13.8353C11.3225 14.9113 9.62536 15.5556 7.77778 15.5556ZM7.77778 13.8889C11.1529 13.8889 13.8889 11.1529 13.8889 7.77778C13.8889 4.4027 11.1529 1.66667 7.77778 1.66667C4.4027 1.66667 1.66667 4.4027 1.66667 7.77778C1.66667 11.1529 4.4027 13.8889 7.77778 13.8889Z" fill="#787887"/>
</svg>
